<svg width="147" height="36" viewBox="0 0 147 36" fill="none" xmlns="http://www.w3.org/2000/svg">
<path d="M23.9685 0.963379H6.12273C4.45712 0.963379 3.14844 2.30191 3.14844 4.00549C3.14844 5.70907 4.45712 7.0476 6.12273 7.0476H12.0713V31.9929C12.0713 33.6965 13.38 35.035 15.0456 35.035C16.7112 35.035 18.0199 33.6965 18.0199 31.9929V7.0476H23.9685C25.6341 7.0476 26.9428 5.70907 26.9428 4.00549C26.9428 2.30191 25.6341 0.963379 23.9685 0.963379Z" fill="#FDCB02"/>
<path d="M143.847 27.1258C143.847 32.1149 138.612 34.9745 133.615 34.9745C130.403 34.9745 125.406 33.3926 123.324 29.9854C120.826 25.7265 126.061 22.9277 128.321 26.3349C129.392 27.9168 131.652 29.0119 133.675 29.0119C135.341 29.0119 137.779 28.586 137.779 27.1867C137.779 25.909 134.21 25.4831 132.188 24.9963C125.466 23.4145 124.455 20.8591 124.455 17.9995C124.455 14.0448 128.143 10.7593 133.14 10.7593C137.006 10.7593 139.861 12.3412 141.943 15.3833C144.382 19.0947 139.743 22.6843 136.887 18.8513C135.935 17.5736 134.746 16.9043 133.14 16.9043C131.95 16.9043 130.701 17.026 130.701 17.9387C130.701 18.8513 132.664 19.0338 134.448 19.3989C141.111 20.7374 143.847 23.1711 143.847 27.1258Z" fill="#FDCB02"/>
<path d="M69.4071 29.62L61.2576 22.319L68.9312 16.4781C70.2399 15.4438 70.5374 13.5577 69.5261 12.2192C68.5148 10.8807 66.6708 10.5764 65.3621 11.6108L58.1048 17.1474V4.00549C58.1048 2.30191 56.7961 0.963379 55.1305 0.963379C53.4649 0.963379 52.1562 2.30191 52.1562 4.00549V31.9929C52.1562 33.6965 53.4649 35.035 55.1305 35.035C56.7961 35.035 58.1048 33.6965 58.1048 31.9929V27.5514L65.4811 34.1832C66.7303 35.2784 68.5743 35.1567 69.7046 33.879C70.7753 32.6013 70.6563 30.7152 69.4071 29.62Z" fill="#FDCB02"/>
<path d="M109.376 35.0356C103.308 35.0356 98.3711 30.5333 98.3711 24.9358V13.7408C98.3711 12.0373 99.6798 10.6987 101.345 10.6987C103.011 10.6987 104.32 12.0373 104.32 13.7408V24.9358C104.32 27.1261 106.64 28.9514 109.376 28.9514C112.112 28.9514 114.432 27.1261 114.432 24.9358V13.7408C114.432 12.0373 115.741 10.6987 117.407 10.6987C119.072 10.6987 120.381 12.0373 120.381 13.7408V24.9358C120.381 30.5333 115.444 35.0356 109.376 35.0356Z" fill="#FDCB02"/>
<path d="M90.0753 26.5171C88.3502 28.1598 86.0898 28.4641 84.0672 28.4641C81.4499 28.4641 79.4274 26.6388 78.892 24.7527H92.6927C94.7747 24.7527 95.7859 23.7792 95.7859 22.0148C95.7859 17.8167 91.6814 10.8198 84.0078 10.8198C77.4048 10.8198 72.2891 16.1739 72.2891 22.8666C72.2891 29.5592 77.4643 34.8525 84.0078 34.8525C88.2907 34.8525 91.9194 33.3923 94.3583 30.5327C96.7377 27.6731 93.4065 23.2316 90.0753 26.5171ZM79.1894 19.3986C79.7843 17.3908 81.8663 16.1739 83.9483 16.1739H85.138C87.2795 16.1739 89.302 17.3908 89.8969 19.5203C89.9563 19.7636 89.6589 20.007 89.421 20.007H79.6058C79.3679 20.007 79.1894 19.8245 79.1894 19.5811V19.3986Z" fill="#FDCB02"/>
<path d="M39.2081 17.9887C36.8717 15.8878 33.3847 15.8926 31.0491 17.9944C28.2383 20.5227 24.9522 24.2692 24.6133 28.1856C24.5152 29.3171 25.3488 30.3291 26.4496 30.4141C26.4597 30.4149 26.4698 30.4157 26.4799 30.4165C28.3715 30.5424 30.8068 27.9539 30.9688 27.7791L30.9782 27.7695L27.6766 26.2747C27.6415 26.2555 27.6361 26.217 27.6641 26.1889L28.4213 25.4191C28.4494 25.391 28.5031 25.375 28.5413 25.3854L32.6952 25.9043L34.2284 24.2387C34.6982 23.7608 35.3682 23.675 35.7242 24.0463C36.0802 24.4175 35.9875 25.1056 35.5177 25.5827L33.8786 27.1312L34.237 31.5191C34.2463 31.5584 34.2307 31.6137 34.2027 31.6426L33.4455 32.4124C33.4174 32.4405 33.38 32.4341 33.3621 32.398L32.0408 28.8681L32.033 28.8761C31.9014 29.014 30.0285 31.0171 30.2934 33.1718C30.2981 33.2087 30.3035 33.2456 30.3098 33.2817C30.4975 34.3923 31.6318 35.0499 32.6687 34.6882C33.7103 34.3241 34.5992 33.6802 35.1313 32.7925C37.1974 36.2383 44.6272 36.0186 45.5909 29.9642C46.3139 25.4231 42.4443 20.898 39.2081 17.9887Z" fill="#FDCB02"/>
<path d="M25.5443 18.9808C27.588 18.9808 29.2448 17.0421 29.2448 14.6505C29.2448 12.259 27.588 10.3203 25.5443 10.3203C23.5005 10.3203 21.8438 12.259 21.8438 14.6505C21.8438 17.0421 23.5005 18.9808 25.5443 18.9808Z" fill="#FDCB02"/>
<path d="M35.1263 14.0096C37.17 14.0096 38.8268 12.0709 38.8268 9.67936C38.8268 7.28783 37.17 5.34912 35.1263 5.34912C33.0826 5.34912 31.4258 7.28783 31.4258 9.67936C31.4258 12.0709 33.0826 14.0096 35.1263 14.0096Z" fill="#FDCB02"/>
<path d="M44.7083 18.9808C46.7521 18.9808 48.4088 17.0421 48.4088 14.6505C48.4088 12.259 46.7521 10.3203 44.7083 10.3203C42.6646 10.3203 41.0078 12.259 41.0078 14.6505C41.0078 17.0421 42.6646 18.9808 44.7083 18.9808Z" fill="#FDCB02"/>
</svg>
