<svg width="92" height="27" viewBox="0 0 92 27" fill="none" xmlns="http://www.w3.org/2000/svg">
<g clip-path="url(#clip0_2321:589)">
<path d="M18.3848 3.96387H8.19951C7.24888 3.96387 6.50195 4.7066 6.50195 5.6519C6.50195 6.5972 7.24888 7.33993 8.19951 7.33993H11.5946V21.1818C11.5946 22.1271 12.3415 22.8698 13.2922 22.8698C14.2428 22.8698 14.9897 22.1271 14.9897 21.1818V7.33993H18.3848C19.3355 7.33993 20.0824 6.5972 20.0824 5.6519C20.0824 4.7066 19.3355 3.96387 18.3848 3.96387Z" fill="#1A1A1A"/>
<path d="M86.8049 18.4796C86.8049 21.2479 83.8172 22.8347 80.9653 22.8347C79.1319 22.8347 76.2801 21.9569 75.0918 20.0663C73.6658 17.7031 76.6535 16.1501 77.9437 18.0407C78.5548 18.9184 79.8449 19.5261 80.9993 19.5261C81.9499 19.5261 83.3419 19.2898 83.3419 18.5133C83.3419 17.8043 81.3048 17.568 80.1505 17.2979C76.314 16.4202 75.7368 15.0022 75.7368 13.4155C75.7368 11.221 77.8418 9.39795 80.6937 9.39795C82.9005 9.39795 84.5302 10.2757 85.7185 11.9638C87.1104 14.0232 84.4623 16.015 82.8326 13.8881C82.2894 13.1791 81.6104 12.8078 80.6937 12.8078C80.0147 12.8078 79.3017 12.8753 79.3017 13.3817C79.3017 13.8881 80.4221 13.9894 81.4406 14.192C85.2431 14.9347 86.8049 16.2851 86.8049 18.4796Z" fill="#1A1A1A"/>
<path d="M44.3185 19.8651L39.6672 15.8138L44.0469 12.5728C44.7938 11.9989 44.9635 10.9523 44.3864 10.2096C43.8092 9.46685 42.7567 9.29805 42.0098 9.87198L37.8678 12.9442V5.6519C37.8678 4.7066 37.1208 3.96387 36.1702 3.96387C35.2196 3.96387 34.4727 4.7066 34.4727 5.6519V21.1818C34.4727 22.1271 35.2196 22.8698 36.1702 22.8698C37.1208 22.8698 37.8678 22.1271 37.8678 21.1818V18.7173L42.0777 22.3972C42.7907 23.0049 43.8432 22.9373 44.4882 22.2284C45.0993 21.5194 45.0314 20.4728 44.3185 19.8651Z" fill="#1A1A1A"/>
<path d="M67.1306 22.869C63.6675 22.869 60.8496 20.3707 60.8496 17.2647V11.0528C60.8496 10.1075 61.5965 9.36475 62.5472 9.36475C63.4978 9.36475 64.2447 10.1075 64.2447 11.0528V17.2647C64.2447 18.4801 65.5688 19.4929 67.1306 19.4929C68.6923 19.4929 70.0164 18.4801 70.0164 17.2647V11.0528C70.0164 10.1075 70.7633 9.36475 71.714 9.36475C72.6646 9.36475 73.4115 10.1075 73.4115 11.0528V17.2647C73.4115 20.3707 70.5936 22.869 67.1306 22.869Z" fill="#1A1A1A"/>
<path d="M56.1162 18.1448C55.1316 19.0564 53.8415 19.2252 52.6872 19.2252C51.1933 19.2252 50.039 18.2123 49.7334 17.1658H57.6101C58.7984 17.1658 59.3755 16.6256 59.3755 15.6465C59.3755 13.317 57.0329 9.43457 52.6532 9.43457C48.8846 9.43457 45.9648 12.4055 45.9648 16.1192C45.9648 19.8328 48.9186 22.77 52.6532 22.77C55.0977 22.77 57.1687 21.9598 58.5607 20.373C59.9187 18.7863 58.0175 16.3217 56.1162 18.1448ZM49.9032 14.1948C50.2427 13.0807 51.431 12.4055 52.6193 12.4055H53.2983C54.5205 12.4055 55.6749 13.0807 56.0144 14.2623C56.0483 14.3974 55.8786 14.5324 55.7428 14.5324H50.1408C50.005 14.5324 49.9032 14.4311 49.9032 14.2961V14.1948Z" fill="#1A1A1A"/>
</g>
<g clip-path="url(#clip1_2321:589)">
<path d="M27.0824 13.4936C25.7489 12.3206 23.7587 12.3233 22.4257 13.4968C20.8214 14.9084 18.9459 17.0002 18.7525 19.1869C18.6965 19.8186 19.1723 20.3837 19.8005 20.4311C19.8063 20.4316 19.8121 20.432 19.8179 20.4325C20.8975 20.5028 22.2874 19.0575 22.3799 18.9599L22.3852 18.9545L20.5009 18.12C20.4808 18.1092 20.4777 18.0877 20.4937 18.0721L20.9259 17.6422C20.9419 17.6266 20.9726 17.6176 20.9944 17.6234L23.3652 17.9131L24.2403 16.9832C24.5084 16.7163 24.8908 16.6684 25.094 16.8757C25.2972 17.083 25.2443 17.4672 24.9761 17.7336L24.0406 18.5981L24.2452 21.0481C24.2505 21.07 24.2416 21.1009 24.2256 21.117L23.7934 21.5469C23.7774 21.5625 23.7561 21.559 23.7458 21.5388L22.9917 19.5679L22.9873 19.5724C22.9121 19.6494 21.8432 20.7678 21.9944 21.9709C21.9971 21.9915 22.0002 22.0121 22.0037 22.0322C22.1109 22.6523 22.7583 23.0194 23.3501 22.8175C23.9446 22.6142 24.4519 22.2547 24.7556 21.7591C25.9348 23.683 30.1753 23.5603 30.7253 20.18C31.138 17.6445 28.9294 15.118 27.0824 13.4936Z" fill="#1A1A1A"/>
<path d="M19.2839 14.0454C20.4504 14.0454 21.3959 12.963 21.3959 11.6277C21.3959 10.2924 20.4504 9.20996 19.2839 9.20996C18.1175 9.20996 17.1719 10.2924 17.1719 11.6277C17.1719 12.963 18.1175 14.0454 19.2839 14.0454Z" fill="#1A1A1A"/>
<path d="M24.7527 11.27C25.9191 11.27 26.8647 10.1876 26.8647 8.85229C26.8647 7.51702 25.9191 6.43457 24.7527 6.43457C23.5862 6.43457 22.6406 7.51702 22.6406 8.85229C22.6406 10.1876 23.5862 11.27 24.7527 11.27Z" fill="#1A1A1A"/>
<path d="M30.2214 14.0454C31.3879 14.0454 32.3335 12.963 32.3335 11.6277C32.3335 10.2924 31.3879 9.20996 30.2214 9.20996C29.055 9.20996 28.1094 10.2924 28.1094 11.6277C28.1094 12.963 29.055 14.0454 30.2214 14.0454Z" fill="#1A1A1A"/>
</g>
<defs>
<clipPath id="clip0_2321:589">
<rect width="83.4857" height="18.906" fill="white" transform="translate(4.25586 3.96436)"/>
</clipPath>
<clipPath id="clip1_2321:589">
<rect width="15.1622" height="16.5748" fill="white" transform="translate(17.1719 6.43604)"/>
</clipPath>
</defs>
</svg>
